<svg id="Шар_1" data-name="Шар 1" xmlns="http://www.w3.org/2000/svg" viewBox="0 0 72 64.76"><defs><style>.cls-1{fill:#ececec;}.cls-1,.cls-2,.cls-3,.cls-4,.cls-5,.cls-6,.cls-7,.cls-8{fill-rule:evenodd;}.cls-2{fill:#9b8e99;}.cls-3{fill:#d7d0d6;}.cls-4{fill:#7b6f78;}.cls-5{fill:#ffe5c1;}.cls-6{fill:#ed145b;}.cls-7{fill:#b91c50;}.cls-8{fill:#fed1a3;}</style></defs><path class="cls-1" d="M63.74,37.15,38.86,26.82l-2.45-3.4,5.23-4.22,14.27,5.93c.79.33,1.49.5,1.15,1.33l-.37.89a1,1,0,0,0,.6,1.44l3,1.22a.78.78,0,0,0,1.14-.55l.2-.48a1.33,1.33,0,0,1,1.62-.82l3.63,1.51c5,2.06,1.29,9.3-3.1,7.48Z" transform="translate(0 -3.76)"/><path class="cls-2" d="M38.86,26.82A12.29,12.29,0,0,1,24.7,30.36l-8.53-3.54a5.64,5.64,0,0,1-3-7.34l5.1-12.26a5.61,5.61,0,0,1,7.32-3L34.1,7.73A12.31,12.31,0,0,1,41.64,19.2a11.93,11.93,0,0,1-.93,4.54A12.07,12.07,0,0,1,38.86,26.82ZM26,20.79l2.24-5.39A3.17,3.17,0,1,0,22.37,13l-2.24,5.4A3.17,3.17,0,0,0,26,20.79Z" transform="translate(0 -3.76)"/><path class="cls-3" d="M62,33.42l-21.61-9a12.17,12.17,0,0,1-1.53,2.37L63.74,37.15c4.2,1.75,7.75-4.83,3.68-7.2C67,32.32,64.64,34.52,62,33.42Z" transform="translate(0 -3.76)"/><path class="cls-4" d="M24.7,30.36a12.29,12.29,0,0,0,14.16-3.54,12.17,12.17,0,0,0,1.53-2.37c.11-.23.22-.47.32-.71a11.93,11.93,0,0,0,.93-4.54,12.38,12.38,0,0,0-2.19-7.13,12.19,12.19,0,0,1,.45,3.41,12,12,0,0,1-.37,2.84A11.66,11.66,0,0,1,39,20a12,12,0,0,1-1.34,2.41c-.16.23-.33.45-.5.66s-.35.41-.53.6a12.44,12.44,0,0,1-1.68,1.49,12.28,12.28,0,0,1-12,1.46l-8.53-3.55A5.5,5.5,0,0,1,12.73,22a5.63,5.63,0,0,0,3.44,4.84Z" transform="translate(0 -3.76)"/><path class="cls-5" d="M21.36,43.51,10.67,45.93,5.33,53.74l5.34,7.83,12.38,3.14L35.9,68a13.39,13.39,0,0,0,6.67.22l26.1-5.66h0c4.31-1,4.46-7,0-6.78a5.45,5.45,0,0,0-.67.07L50.7,58.49a10.22,10.22,0,0,1-3.51-.14c-.8-.14-1.6-.33-2.48-.47l-.13,0L33.85,55.45c-3.58-1.15-2.19-5.59.93-5.12,1.6.21,2.55.28,3.94.41l1.66.16c6.46.65,7-6.86,1.39-8.23L38.7,42.1l-1.6-.29a22.16,22.16,0,0,0-2.2-.29,21.08,21.08,0,0,0-4.39.14c-2,.26-4.3.75-7.31,1.43Z" transform="translate(0 -3.76)"/><path class="cls-6" d="M0,44.59V62.9a1.85,1.85,0,0,0,1.85,1.85h7a1.85,1.85,0,0,0,1.85-1.85V44.59a1.85,1.85,0,0,0-1.85-1.85h-7A1.85,1.85,0,0,0,0,44.59Z" transform="translate(0 -3.76)"/><path class="cls-7" d="M8.82,60.7h-7A1.85,1.85,0,0,1,0,58.85v4a1.85,1.85,0,0,0,1.85,1.85h7a1.85,1.85,0,0,0,1.85-1.85v-4A1.85,1.85,0,0,1,8.82,60.7Z" transform="translate(0 -3.76)"/><path class="cls-8" d="M35.9,63.93,23,60.66,10.67,57.51v4.06l12.38,3.14L35.9,68a13.39,13.39,0,0,0,6.67.22l26.1-5.66h0c3.14-.7,4.07-4.09,2.62-5.8a4.16,4.16,0,0,1-2.62,1.75h0l-26.1,5.66a13.51,13.51,0,0,1-6.67-.22Z" transform="translate(0 -3.76)"/></svg>