<svg id="Шар_1" data-name="Шар 1" xmlns="http://www.w3.org/2000/svg" viewBox="0 0 385.56 182.94"><defs><style>.cls-1{fill:#ececec;}.cls-1,.cls-2,.cls-3,.cls-4,.cls-5,.cls-6,.cls-7,.cls-8{fill-rule:evenodd;}.cls-2{fill:#9b8e99;}.cls-3{fill:#d7d0d6;}.cls-4{fill:#7b6f78;}.cls-5{fill:#ffe5c1;}.cls-6,.cls-9{fill:#ed145b;}.cls-10,.cls-7{fill:#b91c50;}.cls-8{fill:#fed1a3;}.cls-9{font-size:94.98px;font-family:Rubik-Medium, Rubik;font-weight:500;}</style></defs><path class="cls-1" d="M141.56,82.35l-55.24-23-5.46-7.54,11.62-9.37,31.7,13.16c1.76.73,3.31,1.12,2.55,3l-.83,2a2.27,2.27,0,0,0,1.34,3.2l6.56,2.72a1.75,1.75,0,0,0,2.54-1.22l.45-1.08a3,3,0,0,1,3.6-1.81l8.06,3.35c11,4.57,2.86,20.66-6.89,16.62Z" transform="translate(0 5.94)"/><path class="cls-2" d="M86.32,59.39a27.29,27.29,0,0,1-31.45,7.88L35.92,59.39a12.49,12.49,0,0,1-6.73-16.28L40.5,15.86A12.49,12.49,0,0,1,56.78,9.13l19,7.88A27.3,27.3,0,0,1,92.48,42.48a26.86,26.86,0,0,1-2.07,10.09A27.28,27.28,0,0,1,86.32,59.39ZM57.71,46l5-12a7,7,0,0,0-13-5.4l-5,12a7,7,0,1,0,13,5.41Z" transform="translate(0 5.94)"/><path class="cls-3" d="M137.7,74.07l-48-19.94a26.9,26.9,0,0,1-3.39,5.26l55.24,23c9.34,3.88,17.21-10.74,8.17-16-.86,5.27-6.16,10.15-12,7.71Z" transform="translate(0 5.94)"/><path class="cls-4" d="M54.87,67.27a27.29,27.29,0,0,0,31.45-7.88,26.9,26.9,0,0,0,3.39-5.26c.25-.5.48-1,.7-1.56a26.86,26.86,0,0,0,2.07-10.09,27.51,27.51,0,0,0-4.86-15.84,27.06,27.06,0,0,1-4,23c-.35.5-.73,1-1.12,1.47s-.77.9-1.16,1.32A27.38,27.38,0,0,1,51,59l-19-7.87a12.16,12.16,0,0,1-3.78-2.46,12.47,12.47,0,0,0,7.65,10.73Z" transform="translate(0 5.94)"/><path class="cls-5" d="M47.44,96.47l-23.75,5.37L11.84,119.2l11.85,17.37,27.49,7,28.55,7.27a29.88,29.88,0,0,0,14.81.49l58-12.57.1,0c9.57-2.16,9.9-15.52,0-15.06a10.08,10.08,0,0,0-1.5.16l-38.5,5.92a22.74,22.74,0,0,1-7.81-.31c-1.76-.32-3.54-.73-5.5-1l-.29-.06L75.17,123c-8-2.54-4.86-12.41,2.08-11.36,3.54.45,5.66.63,8.74.9,1.08.1,2.27.21,3.7.36,14.34,1.45,15.58-15.23,3.08-18.28l-6.83-1.25L82.4,92.7a41.66,41.66,0,0,0-4.88-.64,46.91,46.91,0,0,0-9.77.31c-4.45.56-9.53,1.66-16.23,3.17Z" transform="translate(0 5.94)"/><path class="cls-6" d="M0,98.86v40.68a4.12,4.12,0,0,0,4.11,4.11H19.59a4.11,4.11,0,0,0,4.1-4.11V98.86a4.11,4.11,0,0,0-4.1-4.11H4.11A4.12,4.12,0,0,0,0,98.86Z" transform="translate(0 5.94)"/><path class="cls-7" d="M19.59,134.64H4.11A4.11,4.11,0,0,1,0,130.54v9a4.12,4.12,0,0,0,4.11,4.11H19.59a4.11,4.11,0,0,0,4.1-4.11v-9a4.11,4.11,0,0,1-4.1,4.1Z" transform="translate(0 5.94)"/><path class="cls-8" d="M79.73,141.82l-28.55-7.27-27.49-7v9l27.49,7,28.55,7.27a29.88,29.88,0,0,0,14.81.49l58-12.57.1,0c7-1.57,9-9.08,5.82-12.88a9.33,9.33,0,0,1-5.82,3.88l-.1,0-58,12.56a29.89,29.89,0,0,1-14.81-.48Z" transform="translate(0 5.94)"/><text class="cls-9" transform="translate(166.82 80.73)">Rent<tspan class="cls-10"><tspan x="0" y="77.13">Lviv</tspan></tspan></text></svg>