<svg xmlns="http://www.w3.org/2000/svg" version="1.1" xmlns:xlink="http://www.w3.org/1999/xlink" xmlns:svgjs="http://svgjs.com/svgjs" width="512" height="512" x="0" y="0" viewBox="0 0 497 497" style="enable-background:new 0 0 512 512" xml:space="preserve" class=""><g><g xmlns="http://www.w3.org/2000/svg" clip-rule="evenodd" fill-rule="evenodd"><path d="m439.964 255.503-171.694-71.342-16.968-23.459 36.124-29.117 98.509 40.917c5.485 2.275 10.289 3.469 7.93 9.184l-2.558 6.142c-1.876 4.521-.028 8.189 4.15 9.924l20.407 8.474c5.798 2.417 7.39-2.616 7.873-3.81l1.393-3.355c2.728-6.824 9.606-6.284 11.198-5.63l25.068 10.407c34.16 14.217 8.865 64.233-21.432 51.665z" fill="#ececec" data-original="#ececec" style=""></path><path d="m268.27 184.161c-23.05 27.98-62.669 39.041-97.741 24.482l-58.889-24.482c-19.668-8.161-29.076-30.937-20.919-50.614l35.157-84.678c8.157-19.677 30.923-29.089 50.59-20.928l58.889 24.482c32.685 13.563 52.409 45.666 52.068 79.162-.085 10.492-2.16 21.127-6.423 31.363-3.268 7.849-7.588 14.957-12.732 21.213zm-88.902-41.6 15.461-37.221c4.604-11.118-.711-23.999-11.823-28.634-11.141-4.606-23.988.711-28.62 11.829l-15.433 37.221c-4.633 11.118.682 23.999 11.823 28.605 11.112 4.635 23.987-.682 28.592-11.8z" fill="#9b8e99" data-original="#9b8e99" style="" class=""></path><path d="m427.97 229.77-149.156-61.959c-2.927 5.943-6.48 11.431-10.544 16.35l171.694 71.342c29.018 12.056 53.489-33.382 25.409-49.704-2.672 16.379-19.157 31.563-37.403 23.971z" fill="#d7d0d6" data-original="#d7d0d6" style="" class=""></path><path d="m170.529 208.643c35.072 14.559 74.692 3.497 97.741-24.482 4.064-4.919 7.617-10.407 10.544-16.35.767-1.564 1.506-3.213 2.188-4.862 4.263-10.236 6.338-20.871 6.423-31.363.171-17.629-5.201-34.861-15.092-49.22 2.103 7.592 3.183 15.525 3.098 23.515-.057 6.54-.909 13.137-2.558 19.648-.995 3.952-2.274 7.848-3.865 11.715-2.501 6-5.599 11.544-9.237 16.634-1.108 1.564-2.274 3.099-3.496 4.578-1.165 1.422-2.387 2.787-3.61 4.095-3.581 3.81-7.475 7.251-11.653 10.293-23.107 16.947-54.257 21.809-82.507 10.066l-58.889-24.454c-4.491-1.848-8.441-4.493-11.766-7.649.938 14.274 9.749 27.525 23.789 33.354z" fill="#7b6f78" data-original="#7b6f78" style="" class=""></path><path d="m147.45 299.378-73.81 16.691-36.834 53.969 36.834 53.997 85.435 21.696 88.732 22.577c9.55 2.957 26.375 5.772 46.014 1.535l180.192-39.069c.085-.028.199-.028.284-.057 29.757-6.711 30.78-48.254 0-46.832-1.478.057-3.041.227-4.661.512l-119.654 18.397c-8.782 1.336-16.428.455-24.272-.967-5.457-.995-10.999-2.275-17.081-3.213l-.909-.199-74.095-16.634c-24.698-7.905-15.092-38.557 6.452-35.287 11.028 1.393 17.621 1.934 27.171 2.787 3.354.313 7.077.654 11.511 1.109 44.565 4.521 48.43-47.315 9.578-56.812l-21.231-3.896-10.999-2.019c-5.258-.967-10.26-1.621-15.177-1.99-9.919-.768-19.554-.398-30.354.967-13.841 1.763-29.644 5.175-50.448 9.867z" fill="#ffe5c1" data-original="#ffe5c1" style="" class=""></path><path d="m0 306.828v126.42c0 7.023 5.741 12.767 12.761 12.767h48.117c7.02 0 12.761-5.744 12.761-12.767v-9.213-107.966-9.241c0-7.023-5.741-12.767-12.761-12.767h-48.117c-7.02 0-12.761 5.743-12.761 12.767z" fill="#ed145b" data-original="#00c0fa" style="" class=""></path><path d="m60.879 418.035h-48.118c-7.02 0-12.761-5.743-12.761-12.767v27.98c0 7.023 5.741 12.767 12.761 12.767h48.117c7.02 0 12.761-5.744 12.761-12.767v-9.213-18.767c0 4.35-2.217 8.246-5.599 10.549-2.045 1.394-4.518 2.218-7.161 2.218z" fill="#b91c50" data-original="#08a9f1" style="" class=""></path><path d="m247.806 440.328-88.732-22.577-85.434-21.724v9.241 18.767l85.435 21.696 88.732 22.577c9.55 2.957 26.375 5.772 46.014 1.535l180.192-39.069.284-.057c21.657-4.891 28.109-28.236 18.104-40.036-3.752 5.602-9.805 10.18-18.104 12.056l-.284.057-180.192 39.041c-19.64 4.265-36.465 1.45-46.015-1.507z" fill="#fed1a3" data-original="#fed1a3" style="" class=""></path></g></g></svg>